<mxfile host="app.diagrams.net" modified="2022-11-18T07:05:25.636Z" agent="5.0 (Windows NT 10.0; Win64; x64) AppleWebKit/537.36 (KHTML, like Gecko) Chrome/105.0.0.0 Safari/537.36" etag="1syiJ6oqJ4RZvnVcGq3C" version="20.5.3" type="github">
  <diagram id="FPE9MjmO0561xppsKwPV" name="第 1 页">
    <mxGraphModel dx="2062" dy="1066" grid="1" gridSize="10" guides="1" tooltips="1" connect="1" arrows="1" fold="1" page="1" pageScale="1" pageWidth="827" pageHeight="1169" math="0" shadow="0">
      <root>
        <mxCell id="0" />
        <mxCell id="1" parent="0" />
        <mxCell id="WDD8p7Qb1iRJwsrjvyoN-2" value="磁盘文件 /chcore/file_a" style="rounded=0;whiteSpace=wrap;html=1;" vertex="1" parent="1">
          <mxGeometry x="570" y="420" width="140" height="40" as="geometry" />
        </mxCell>
        <mxCell id="WDD8p7Qb1iRJwsrjvyoN-4" value="" style="rounded=0;whiteSpace=wrap;html=1;" vertex="1" parent="1">
          <mxGeometry x="330" y="380" width="160" height="150" as="geometry" />
        </mxCell>
        <mxCell id="WDD8p7Qb1iRJwsrjvyoN-6" style="edgeStyle=orthogonalEdgeStyle;rounded=0;orthogonalLoop=1;jettySize=auto;html=1;exitX=1;exitY=0.5;exitDx=0;exitDy=0;exitPerimeter=0;entryX=0;entryY=0.5;entryDx=0;entryDy=0;curved=1;" edge="1" parent="1" source="WDD8p7Qb1iRJwsrjvyoN-3" target="WDD8p7Qb1iRJwsrjvyoN-2">
          <mxGeometry relative="1" as="geometry" />
        </mxCell>
        <mxCell id="WDD8p7Qb1iRJwsrjvyoN-3" value="文件副本" style="whiteSpace=wrap;html=1;shape=mxgraph.basic.document" vertex="1" parent="1">
          <mxGeometry x="410" y="440" width="60" height="70" as="geometry" />
        </mxCell>
        <mxCell id="WDD8p7Qb1iRJwsrjvyoN-5" value="虚拟文件系统节点&lt;br&gt;/chcore/file_a" style="text;html=1;strokeColor=none;fillColor=none;align=center;verticalAlign=middle;whiteSpace=wrap;rounded=0;" vertex="1" parent="1">
          <mxGeometry x="355" y="390" width="110" height="30" as="geometry" />
        </mxCell>
        <mxCell id="WDD8p7Qb1iRJwsrjvyoN-10" style="edgeStyle=orthogonalEdgeStyle;curved=1;rounded=0;orthogonalLoop=1;jettySize=auto;html=1;exitX=1;exitY=0.5;exitDx=0;exitDy=0;entryX=0;entryY=0.5;entryDx=0;entryDy=0;" edge="1" parent="1" source="WDD8p7Qb1iRJwsrjvyoN-7" target="WDD8p7Qb1iRJwsrjvyoN-4">
          <mxGeometry relative="1" as="geometry" />
        </mxCell>
        <mxCell id="WDD8p7Qb1iRJwsrjvyoN-7" value="表项：(用户1, fd=3)" style="rounded=0;whiteSpace=wrap;html=1;" vertex="1" parent="1">
          <mxGeometry x="70" y="372" width="170" height="35" as="geometry" />
        </mxCell>
        <mxCell id="WDD8p7Qb1iRJwsrjvyoN-13" style="edgeStyle=orthogonalEdgeStyle;curved=1;rounded=0;orthogonalLoop=1;jettySize=auto;html=1;exitX=1;exitY=0.5;exitDx=0;exitDy=0;entryX=0;entryY=0.5;entryDx=0;entryDy=0;" edge="1" parent="1" source="WDD8p7Qb1iRJwsrjvyoN-8" target="WDD8p7Qb1iRJwsrjvyoN-4">
          <mxGeometry relative="1" as="geometry" />
        </mxCell>
        <mxCell id="WDD8p7Qb1iRJwsrjvyoN-8" value="表项：(用户2, fd=4)" style="rounded=0;whiteSpace=wrap;html=1;" vertex="1" parent="1">
          <mxGeometry x="70" y="437" width="170" height="35" as="geometry" />
        </mxCell>
        <mxCell id="WDD8p7Qb1iRJwsrjvyoN-16" style="edgeStyle=orthogonalEdgeStyle;curved=1;rounded=0;orthogonalLoop=1;jettySize=auto;html=1;exitX=1;exitY=0.5;exitDx=0;exitDy=0;entryX=0;entryY=0.5;entryDx=0;entryDy=0;dashed=1;" edge="1" parent="1" source="WDD8p7Qb1iRJwsrjvyoN-9" target="WDD8p7Qb1iRJwsrjvyoN-4">
          <mxGeometry relative="1" as="geometry" />
        </mxCell>
        <mxCell id="WDD8p7Qb1iRJwsrjvyoN-17" value="新打开" style="edgeLabel;html=1;align=center;verticalAlign=middle;resizable=0;points=[];" vertex="1" connectable="0" parent="WDD8p7Qb1iRJwsrjvyoN-16">
          <mxGeometry x="-0.1536" relative="1" as="geometry">
            <mxPoint y="1" as="offset" />
          </mxGeometry>
        </mxCell>
        <mxCell id="WDD8p7Qb1iRJwsrjvyoN-9" value="表项：(用户1, fd=4)" style="rounded=0;whiteSpace=wrap;html=1;fillColor=#f5f5f5;fontColor=#333333;strokeColor=#666666;" vertex="1" parent="1">
          <mxGeometry x="70" y="507" width="170" height="35" as="geometry" />
        </mxCell>
      </root>
    </mxGraphModel>
  </diagram>
</mxfile>
